<?xml version="1.0" standalone="no"?>
<!DOCTYPE svg PUBLIC "-//W3C//DTD SVG 20010904//EN"
 "http://www.w3.org/TR/2001/REC-SVG-20010904/DTD/svg10.dtd">
<svg version="1.0" xmlns="http://www.w3.org/2000/svg"
 width="966.000000pt" height="966.000000pt" viewBox="0 0 966.000000 966.000000"
 preserveAspectRatio="xMidYMid meet">
<metadata>
Created by potrace 1.11, written by Peter Selinger 2001-2013
</metadata>
<g transform="translate(0.000000,966.000000) scale(0.100000,-0.100000)"
fill="#000000" stroke="none">
<path d="M4430 9639 c-1011 -88 -1927 -466 -2710 -1120 -160 -133 -446 -419
-579 -579 -663 -794 -1046 -1733 -1122 -2749 -15 -202 -6 -710 15 -891 72
-606 229 -1131 492 -1651 632 -1248 1783 -2165 3139 -2499 377 -93 658 -129
1065 -137 378 -7 625 11 970 73 1867 336 3377 1764 3820 3614 99 417 136 770
127 1235 -7 404 -43 681 -137 1060 -86 349 -190 634 -350 960 -237 485 -535
900 -920 1285 -817 818 -1860 1300 -3025 1400 -139 11 -646 11 -785 -1z m-800
-2511 c630 -77 1161 -455 1289 -916 32 -116 36 -180 13 -222 -37 -70 -39 -70
-489 -70 -242 0 -421 4 -451 10 -64 14 -116 58 -151 129 -56 110 -178 195
-327 226 -88 19 -279 19 -367 0 -130 -27 -216 -80 -264 -162 -21 -36 -27 -63
-31 -122 -14 -238 158 -334 852 -477 614 -125 917 -252 1127 -471 162 -168
233 -351 246 -631 16 -353 -87 -615 -334 -853 -231 -222 -558 -363 -988 -426
-168 -24 -599 -24 -775 0 -242 34 -426 87 -619 178 -170 81 -279 156 -391 270
-159 161 -253 340 -287 548 -19 117 -13 157 28 197 l30 29 412 3 c227 2 426 0
443 -3 50 -9 122 -63 158 -119 61 -93 164 -180 269 -225 113 -49 315 -70 493
-52 240 24 381 90 452 210 23 40 27 57 27 126 0 69 -4 86 -27 126 -37 63 -77
95 -183 145 -109 52 -267 98 -544 159 -488 107 -645 156 -875 272 -358 180
-541 426 -585 788 -45 365 63 679 316 927 252 244 608 385 1063 418 130 9 343
4 470 -12z m3509 -1004 c233 -34 426 -124 581 -271 219 -208 341 -491 380
-882 13 -134 13 -550 0 -682 -39 -378 -169 -674 -388 -881 -85 -80 -139 -118
-240 -168 -269 -134 -642 -157 -935 -60 -150 50 -268 127 -366 236 l-50 57 -3
-631 c-3 -619 -3 -631 -24 -658 -11 -15 -33 -37 -48 -48 -26 -20 -42 -21 -397
-24 -242 -2 -389 1 -423 8 -63 13 -103 50 -117 106 -12 52 -11 3697 1 3748 5
22 23 53 39 70 l31 31 393 3 c379 2 393 2 425 -18 49 -30 62 -72 62 -197 l0
-107 68 70 c120 126 235 198 403 255 172 58 400 74 608 43z"/>
<path d="M6470 5346 c-163 -36 -276 -160 -332 -365 -19 -68 -21 -104 -22 -356
-1 -313 4 -355 61 -474 96 -201 304 -290 556 -236 134 28 211 91 274 221 59
124 77 234 77 494 0 192 -4 240 -22 324 -37 175 -109 294 -211 350 -95 51
-258 69 -381 42z"/>
</g>
</svg>
